<svg xmlns="http://www.w3.org/2000/svg" viewBox="5.050 4.966 49.600 46.084"><title>Moon Rabbit Theremin</title><path id="color-region-00" d="M 34.2000 36.0000 L 36.6000 39.0000 L 37.0960 38.6050 L 37.5700 38.2070 L 38.0220 37.8080 L 38.4530 37.4090 L 38.8610 37.0100 L 39.2460 36.6140 L 39.6080 36.2200 L 39.9470 35.8310 L 40.2620 35.4470 L 40.5530 35.0700 L 40.8190 34.7000 L 41.0610 34.3380 L 41.2780 33.9860 L 41.4700 33.6450 L 41.6350 33.3160 L 41.7750 33.0000 L 41.8880 32.6980 L 41.9750 32.4110 L 42.0350 32.1400 L 42.0670 31.8870 L 42.0710 31.6520 L 42.0480 31.4360 L 41.9960 31.2420 L 41.9160 31.0690 L 41.8060 30.9190 L 41.6670 30.7920 L 41.4990 30.6910 L 41.3000 30.6160 L 41.0720 30.5690 L 40.8120 30.5490 L 40.5220 30.5590 L 40.2000 30.6000 L 40.0310 30.6630 L 39.8620 30.7400 L 39.6930 30.8290 L 39.5240 30.9300 L 39.3540 31.0430 L 39.1840 31.1670 L 39.0120 31.3010 L 38.8410 31.4440 L 38.6680 31.5960 L 38.4940 31.7560 L 38.3190 31.9230 L 38.1430 32.0980 L 37.9660 32.2780 L 37.7870 32.4640 L 37.6070 32.6550 L 37.4250 32.8500 L 37.2410 33.0490 L 37.0560 33.2500 L 36.8680 33.4530 L 36.6790 33.6590 L 36.4870 33.8650 L 36.2930 34.0710 L 36.0960 34.2770 L 35.8970 34.4810 L 35.6950 34.6840 L 35.4910 34.8850 L 35.2830 35.0820 L 35.0730 35.2760 L 34.8600 35.4650 L 34.6430 35.6490 L 34.4230 35.8280 Z" fill="#fff5de" fill-rule="evenodd" stroke="none" /><path id="color-region-01" d="M 21.0169 22.2167 L 21.0115 22.2211 L 21.0058 22.2249 L 21.0019 22.2272 L 20.7979 22.3343 L 20.7842 22.3418 L 20.5845 22.4561 L 20.5694 22.4651 L 20.3769 22.5860 L 20.3646 22.5941 L 20.1781 22.7202 L 20.1631 22.7309 L 19.9854 22.8625 L 19.9714 22.8733 L 19.7984 23.0129 L 19.7878 23.0217 L 19.6215 23.1649 L 19.6063 23.1786 L 19.4481 23.3285 L 19.4371 23.3393 L 19.2841 23.4952 L 19.2725 23.5074 L 19.1264 23.6683 L 19.1155 23.6808 L 18.9750 23.8482 L 18.9642 23.8615 L 18.8309 24.0337 L 18.8215 24.0463 L 18.6948 24.2229 L 18.6847 24.2376 L 18.5644 24.4208 L 18.5561 24.4340 L 18.4416 24.6229 L 18.4338 24.6363 L 18.3260 24.8297 L 18.3184 24.8440 L 18.2167 25.0436 L 18.2104 25.0565 L 18.1152 25.2601 L 18.1088 25.2744 L 18.0201 25.4836 L 18.0145 25.4972 L 17.9320 25.7121 L 17.9272 25.7252 L 17.8515 25.9430 L 17.8464 25.9586 L 17.7777 26.1836 L 17.7745 26.1944 L 17.7111 26.4235 L 17.7075 26.4371 L 17.6509 26.6712 L 17.6481 26.6838 L 17.5980 26.9217 L 17.5953 26.9358 L 17.5526 27.1787 L 17.5509 27.1894 L 17.5137 27.4373 L 17.5120 27.4494 L 17.4817 27.6999 L 17.4803 27.7134 L 17.4574 27.9700 L 17.4566 27.9799 L 17.4394 28.2399 L 17.4387 28.2527 L 17.4292 28.5169 L 17.4289 28.5263 L 17.4252 28.7885 L 17.4254 28.8109 L 17.4433 29.2823 L 17.4459 29.3158 L 17.4988 29.7694 L 17.5040 29.8026 L 17.5911 30.2460 L 17.5988 30.2782 L 17.7184 30.7083 L 17.7285 30.7401 L 17.8807 31.1585 L 17.8928 31.1882 L 18.0755 31.5935 L 18.0905 31.6236 L 18.3051 32.0148 L 18.3208 32.0411 L 18.5651 32.4196 L 18.5829 32.4451 L 18.8563 32.8081 L 18.8754 32.8317 L 19.1780 33.1792 L 19.1974 33.2001 L 19.5269 33.5315 L 19.5480 33.5513 L 19.9058 33.8658 L 19.9266 33.8830 L 20.3104 34.1798 L 20.3315 34.1951 L 20.7411 34.4739 L 20.7622 34.4873 L 21.1951 34.7465 L 21.2177 34.7591 L 21.6757 34.9972 L 21.6965 35.0073 L 22.1765 35.2249 L 22.1992 35.2344 L 22.7024 35.4286 L 22.7226 35.4358 L 23.2464 35.6085 L 23.2682 35.6150 L 23.8119 35.7630 L 23.8322 35.7680 L 24.3950 35.8921 L 24.4166 35.8963 L 24.9979 35.9936 L 25.0173 35.9964 L 25.6161 36.0689 L 25.6367 36.0709 L 26.2503 36.1153 L 26.2702 36.1163 L 26.9003 36.1327 L 26.9199 36.1328 L 27.5645 36.1202 L 27.5834 36.1194 L 28.2402 36.0777 L 28.2594 36.0760 L 28.9295 36.0032 L 28.9480 36.0008 L 29.6289 35.8967 L 29.6464 35.8937 L 30.3386 35.7583 L 30.3567 35.7544 L 31.0568 35.5859 L 31.0744 35.5813 L 31.7937 35.3758 L 32.4365 35.1938 L 32.4621 35.1857 L 33.0566 34.9764 L 33.0829 34.9661 L 33.6425 34.7269 L 33.6680 34.7150 L 34.1909 34.4497 L 34.2165 34.4356 L 34.7046 34.1446 L 34.7297 34.1284 L 35.1815 33.8147 L 35.2059 33.7964 L 35.6229 33.4606 L 35.6457 33.4408 L 36.0267 33.0871 L 36.0491 33.0647 L 36.3944 32.6931 L 36.4149 32.6694 L 36.7256 32.2820 L 36.7452 32.2555 L 37.0188 31.8549 L 37.0358 31.8278 L 37.2748 31.4152 L 37.2899 31.3868 L 37.4936 30.9654 L 37.5073 30.9341 L 37.6743 30.5045 L 37.6852 30.4728 L 37.8170 30.0357 L 37.8254 30.0034 L 37.9217 29.5626 L 37.9277 29.5285 L 37.9878 29.0848 L 37.9910 29.0503 L 38.0150 28.6061 L 38.0155 28.5712 L 38.0035 28.1281 L 38.0012 28.0934 L 37.9532 27.6517 L 37.9478 27.6160 L 37.8631 27.1803 L 37.8548 27.1456 L 37.7330 26.7137 L 37.7221 26.6803 L 37.5643 26.2568 L 37.5502 26.2233 L 37.3546 25.8091 L 37.3377 25.7769 L 37.1035 25.3732 L 37.0851 25.3443 L 36.8142 24.9528 L 36.7927 24.9243 L 36.4823 24.5469 L 36.4594 24.5213 L 36.1094 24.1592 L 36.0851 24.1359 L 35.6958 23.7916 L 35.6697 23.7702 L 35.2396 23.4462 L 35.2132 23.4278 L 34.7412 23.1248 L 34.7147 23.1092 L 34.1978 22.8273 L 34.1938 22.8248 L 34.1882 22.8209 L 34.1828 22.8164 L 34.1798 22.8125 L 34.1777 22.8081 L 34.1765 22.8034 L 34.1763 22.7985 L 34.1775 22.7916 L 34.1793 22.7850 L 34.1807 22.7806 L 34.2893 22.5014 L 34.2919 22.4948 L 34.4061 22.1861 L 34.4087 22.1789 L 34.5245 21.8482 L 34.5262 21.8435 L 34.6441 21.4935 L 34.6463 21.4869 L 34.7634 21.1198 L 34.7648 21.1152 L 34.8820 20.7333 L 34.8840 20.7264 L 34.9982 20.3306 L 34.9996 20.3258 L 35.1121 19.9181 L 35.1136 19.9129 L 35.2229 19.4961 L 35.2246 19.4896 L 35.3290 19.0650 L 35.3303 19.0594 L 35.4299 18.6298 L 35.4313 18.6233 L 35.5248 18.1893 L 35.5262 18.1825 L 35.6127 17.7470 L 35.6141 17.7397 L 35.6926 17.3049 L 35.6940 17.2967 L 35.7636 16.8637 L 35.7649 16.8548 L 35.8246 16.4263 L 35.8257 16.4173 L 35.8755 15.9949 L 35.8766 15.9838 L 35.9146 15.5698 L 35.9154 15.5583 L 35.9416 15.1542 L 35.9423 15.1413 L 35.9557 14.7500 L 35.9560 14.7352 L 35.9560 14.3590 L 35.9557 14.3420 L 35.9414 13.9833 L 35.9402 13.9638 L 35.9111 13.6233 L 35.9085 13.6003 L 35.8641 13.2828 L 35.8598 13.2578 L 35.8007 12.9628 L 35.7936 12.9331 L 35.7201 12.6665 L 35.7088 12.6314 L 35.6207 12.3936 L 35.6033 12.3531 L 35.5010 12.1453 L 35.4769 12.1027 L 35.3638 11.9267 L 35.3288 11.8796 L 35.2054 11.7355 L 35.1595 11.6894 L 35.0249 11.5733 L 34.9681 11.5319 L 34.8134 11.4375 L 34.7616 11.4105 L 34.5915 11.3362 L 34.5461 11.3193 L 34.3855 11.2698 L 34.3301 11.2566 L 34.1826 11.2318 L 34.1241 11.2261 L 33.9879 11.2220 L 33.9245 11.2248 L 33.7983 11.2398 L 33.7343 11.2523 L 33.6103 11.2866 L 33.5538 11.3066 L 33.4292 11.3607 L 33.3776 11.3873 L 33.2522 11.4633 L 33.2100 11.4924 L 33.0804 11.5938 L 33.0461 11.6237 L 32.9159 11.7500 L 32.8880 11.7796 L 32.7563 11.9340 L 32.7360 11.9597 L 32.6044 12.1401 L 32.5879 12.1645 L 32.4572 12.3722 L 32.4445 12.3936 L 32.3164 12.6261 L 32.3065 12.6452 L 32.1811 12.9025 L 32.1728 12.9206 L 32.0513 13.2020 L 32.0452 13.2170 L 31.9270 13.5220 L 31.9221 13.5353 L 31.8080 13.8613 L 31.8036 13.8745 L 31.6945 14.2223 L 31.6915 14.2322 L 31.5856 14.6006 L 31.5828 14.6107 L 31.4814 14.9986 L 31.4792 15.0075 L 31.3823 15.4138 L 31.3805 15.4214 L 31.2873 15.8463 L 31.2857 15.8540 L 31.1972 16.2956 L 31.1960 16.3019 L 31.1112 16.7600 L 31.1101 16.7667 L 31.0301 17.2408 L 31.0293 17.2453 L 30.9522 17.7338 L 30.9513 17.7397 L 30.8791 18.2420 L 30.8784 18.2468 L 30.8101 18.7640 L 30.8095 18.7683 L 30.7450 19.2982 L 30.7446 19.3016 L 30.6831 19.8437 L 30.6826 19.8477 L 30.6259 20.3924 L 30.6253 20.3966 L 30.6240 20.4029 L 30.6221 20.4091 L 30.6200 20.4131 L 30.6171 20.4167 L 30.6137 20.4196 L 30.6097 20.4219 L 30.6054 20.4233 L 30.6008 20.4239 L 30.5963 20.4236 L 30.5900 20.4220 L 30.5840 20.4198 L 30.5800 20.4182 L 30.4824 20.3719 L 30.4689 20.3658 L 30.3638 20.3204 L 30.3529 20.3159 L 30.2471 20.2736 L 30.2312 20.2676 L 30.1228 20.2291 L 30.1092 20.2245 L 29.9961 20.1886 L 29.9854 20.1854 L 29.8691 20.1518 L 29.8577 20.1486 L 29.7398 20.1180 L 29.7264 20.1148 L 29.6072 20.0879 L 29.5945 20.0852 L 29.4726 20.0616 L 29.4624 20.0597 L 29.3385 20.0388 L 29.3259 20.0368 L 29.2008 20.0195 L 29.1909 20.0182 L 29.0636 20.0036 L 29.0514 20.0023 L 28.9238 19.9913 L 28.9144 19.9906 L 28.7859 19.9824 L 28.7736 19.9818 L 28.6450 19.9772 L 28.6358 19.9769 L 28.5061 19.9751 L 28.4939 19.9751 L 28.3642 19.9769 L 28.3550 19.9772 L 28.2264 19.9818 L 28.2141 19.9824 L 28.0856 19.9906 L 28.0762 19.9913 L 27.9486 20.0023 L 27.9364 20.0036 L 27.8091 20.0182 L 27.7992 20.0195 L 27.6741 20.0368 L 27.6615 20.0388 L 27.5376 20.0597 L 27.5274 20.0616 L 27.4055 20.0852 L 27.3928 20.0879 L 27.2736 20.1148 L 27.2602 20.1180 L 27.1423 20.1486 L 27.1309 20.1518 L 27.0146 20.1854 L 27.0039 20.1886 L 26.8908 20.2245 L 26.8772 20.2291 L 26.7688 20.2676 L 26.7529 20.2736 L 26.6471 20.3159 L 26.6362 20.3204 L 26.5311 20.3658 L 26.5176 20.3719 L 26.4206 20.4179 L 26.4164 20.4196 L 26.4100 20.4219 L 26.4032 20.4235 L 26.3984 20.4237 L 26.3936 20.4229 L 26.3891 20.4211 L 26.3850 20.4185 L 26.3816 20.4150 L 26.3789 20.4110 L 26.3764 20.4045 L 26.3745 20.3980 L 26.3735 20.3935 L 26.3152 20.0632 L 26.3135 20.0540 L 26.2433 19.7010 L 26.2417 19.6932 L 26.1615 19.3253 L 26.1597 19.3178 L 26.0696 18.9376 L 26.0678 18.9303 L 25.9676 18.5382 L 25.9661 18.5325 L 25.8580 18.1329 L 25.8557 18.1247 L 25.7369 17.7171 L 25.7351 17.7112 L 25.6083 17.2981 L 25.6060 17.2910 L 25.4703 16.8751 L 25.4682 16.8688 L 25.3247 16.4512 L 25.3220 16.4435 L 25.1699 16.0264 L 25.1672 16.0191 L 25.0072 15.6040 L 25.0042 15.5965 L 24.8366 15.1848 L 24.8332 15.1766 L 24.6580 14.7704 L 24.6542 14.7620 L 24.4723 14.3639 L 24.4683 14.3554 L 24.2800 13.9661 L 24.2751 13.9563 L 24.0808 13.5794 L 24.0749 13.5683 L 23.8730 13.2034 L 23.8674 13.1935 L 23.6614 12.8434 L 23.6537 12.8308 L 23.4427 12.4989 L 23.4334 12.4849 L 23.2164 12.1715 L 23.2067 12.1580 L 22.9864 11.8645 L 22.9740 11.8488 L 22.7499 11.5776 L 22.7359 11.5615 L 22.5103 11.3145 L 22.4912 11.2950 L 22.2636 11.0756 L 22.2423 11.0563 L 22.0130 10.8632 L 21.9874 10.8432 L 21.7599 10.6792 L 21.7278 10.6581 L 21.5016 10.5240 L 21.4640 10.5041 L 21.2399 10.3996 L 21.1945 10.3815 L 20.9736 10.3076 L 20.9226 10.2939 L 20.7035 10.2495 L 20.6473 10.2419 L 20.4306 10.2271 L 20.3696 10.2273 L 20.2207 10.2384 L 20.1556 10.2482 L 20.0291 10.2775 L 19.9584 10.3004 L 19.8486 10.3468 L 19.7837 10.3811 L 19.6831 10.4457 L 19.6269 10.4887 L 19.5329 10.5739 L 19.4873 10.6221 L 19.3967 10.7340 L 19.3635 10.7811 L 19.2782 10.9213 L 19.2546 10.9656 L 19.1757 11.1379 L 19.1605 11.1755 L 19.0900 11.3779 L 19.0794 11.4130 L 19.0203 11.6441 L 19.0137 11.6747 L 18.9669 11.9357 L 18.9633 11.9598 L 18.9283 12.2475 L 18.9261 12.2712 L 18.9056 12.5838 L 18.9048 12.6024 L 18.8972 12.9403 L 18.8972 12.9578 L 18.9039 13.3188 L 18.9044 13.3335 L 18.9246 13.7166 L 18.9255 13.7299 L 18.9594 14.1335 L 18.9606 14.1456 L 19.0082 14.5693 L 19.0096 14.5804 L 19.0711 15.0236 L 19.0725 15.0330 L 19.1469 15.4944 L 19.1484 15.5032 L 19.2358 15.9811 L 19.2374 15.9894 L 19.3377 16.4829 L 19.3393 16.4907 L 19.4526 17.0001 L 19.4541 17.0066 L 19.5794 17.5313 L 19.5812 17.5386 L 19.7194 18.0756 L 19.7210 18.0816 L 19.8713 18.6326 L 19.8728 18.6380 L 20.0340 19.1997 L 20.0360 19.2061 L 20.2102 19.7795 L 20.2115 19.7837 L 20.3959 20.3685 L 20.3977 20.3741 L 20.5939 20.9675 L 20.5956 20.9725 L 20.8028 21.5743 L 20.8045 21.5791 L 21.0198 22.1812 L 21.0212 22.1856 L 21.0228 22.1922 L 21.0238 22.1991 L 21.0234 22.2040 L 21.0221 22.2086 L 21.0199 22.2130 Z" fill="#fff5de" fill-rule="evenodd" stroke="none" /><path id="color-region-02" d="M 17.2132 41.0024 L 17.0150 40.7555 L 17.0144 40.7547 L 17.0120 40.7517 L 17.0114 40.7509 L 16.2742 39.7446 L 16.2736 39.7438 L 16.2715 39.7408 L 16.2710 39.7400 L 15.5886 38.7209 L 15.5880 38.7201 L 15.5859 38.7167 L 15.5854 38.7159 L 14.9598 37.6840 L 14.9593 37.6831 L 14.9574 37.6798 L 14.9570 37.6790 L 14.3853 36.6362 L 14.3848 36.6353 L 14.3829 36.6317 L 14.3825 36.6308 L 13.8666 35.5782 L 13.8662 35.5773 L 13.8645 35.5737 L 13.8641 35.5727 L 13.4031 34.5122 L 13.4027 34.5113 L 13.4011 34.5076 L 13.4008 34.5066 L 12.9935 33.4393 L 12.9932 33.4383 L 12.9918 33.4344 L 12.9915 33.4334 L 12.6390 32.3601 L 12.6387 32.3592 L 12.6375 32.3553 L 12.6373 32.3543 L 12.3376 31.2772 L 12.3373 31.2761 L 12.3363 31.2721 L 12.3361 31.2711 L 12.0902 30.1910 L 12.0900 30.1900 L 12.0891 30.1859 L 12.0889 30.1849 L 11.8958 29.1029 L 11.8957 29.1018 L 11.8950 29.0978 L 11.8949 29.0967 L 11.7536 28.0138 L 11.7534 28.0128 L 11.7530 28.0085 L 11.7529 28.0074 L 11.6653 26.9265 L 11.6652 26.9255 L 11.6650 26.9214 L 11.6649 26.9203 L 11.6281 25.8404 L 11.6281 25.8394 L 11.6280 25.8352 L 11.6280 25.8341 L 11.6430 24.7592 L 11.6430 24.7582 L 11.6432 24.7539 L 11.6432 24.7529 L 11.7099 23.6820 L 11.7100 23.6809 L 11.7103 23.6768 L 11.7104 23.6757 L 11.8279 22.6108 L 11.8280 22.6097 L 11.8286 22.6056 L 11.8287 22.6045 L 11.9969 21.5466 L 11.9971 21.5456 L 11.9978 21.5414 L 11.9981 21.5403 L 12.2170 20.4923 L 12.2172 20.4913 L 12.2182 20.4874 L 12.2184 20.4864 L 12.4861 19.4473 L 12.4864 19.4462 L 12.4876 19.4422 L 12.4879 19.4411 L 12.8064 18.4140 L 12.8067 18.4130 L 12.8080 18.4091 L 12.8083 18.4081 L 13.1734 17.4000 L 13.1748 17.3965 L 13.1810 17.3832 L 13.1827 17.3798 L 13.5233 16.7793 L 13.5237 16.7786 L 13.5253 16.7760 L 13.5257 16.7753 L 13.8887 16.1849 L 13.8906 16.1819 L 14.2681 15.6098 L 14.2686 15.6091 L 14.2702 15.6067 L 14.2707 15.6060 L 14.6645 15.0510 L 14.6650 15.0504 L 14.6668 15.0480 L 14.6673 15.0474 L 15.0770 14.5103 L 15.0775 14.5097 L 15.0793 14.5074 L 15.0798 14.5068 L 15.5067 13.9842 L 15.5090 13.9815 L 15.9480 13.4779 L 15.9485 13.4774 L 15.9504 13.4752 L 15.9509 13.4746 L 16.4068 12.9860 L 16.4093 12.9834 L 16.8783 12.5124 L 16.8808 12.5099 L 17.3639 12.0548 L 17.3664 12.0525 L 17.8615 11.6143 L 17.8641 11.6120 L 18.3731 11.1898 L 18.3757 11.1877 L 18.8967 10.7813 L 18.8991 10.7794 L 18.9947 10.7091 L 18.9984 10.7067 L 19.0040 10.7033 L 19.0100 10.7005 L 19.0146 10.6994 L 19.0193 10.6992 L 19.0259 10.7002 L 19.0361 10.7028 L 19.1927 10.7131 L 19.3425 10.6666 L 19.4657 10.5694 L 19.4676 10.5671 L 19.4769 10.5573 L 19.4794 10.5549 L 19.6147 10.4324 L 19.6175 10.4300 L 19.6289 10.4213 L 19.6319 10.4192 L 19.7818 10.3229 L 19.7851 10.3210 L 19.7983 10.3140 L 19.8017 10.3124 L 19.8917 10.2743 L 20.0179 10.1924 L 20.1081 10.0720 L 20.1513 9.9279 L 20.1529 9.9142 L 20.1543 9.9077 L 20.1562 9.9034 L 20.1588 9.8995 L 20.1636 9.8949 L 20.1688 9.8908 L 20.1723 9.8883 L 20.5365 9.6540 L 20.5390 9.6524 L 21.1051 9.3096 L 21.1078 9.3081 L 21.6837 8.9813 L 21.6864 8.9798 L 22.2713 8.6689 L 22.2739 8.6676 L 22.8689 8.3716 L 22.8716 8.3704 L 23.4745 8.0903 L 23.4770 8.0892 L 24.0891 7.8231 L 24.0918 7.8220 L 24.7117 7.5718 L 24.7142 7.5709 L 25.3412 7.3356 L 25.3438 7.3347 L 25.9778 7.1144 L 25.9804 7.1136 L 26.6214 6.9082 L 26.6239 6.9074 L 27.2710 6.7170 L 27.2733 6.7164 L 27.8317 6.5655 L 27.9848 6.4888 L 28.0958 6.3585 L 28.1472 6.1953 L 28.1309 6.0249 L 28.0493 5.8744 L 27.9155 5.7676 L 27.7507 5.7215 L 27.0388 5.6699 L 27.0149 5.6688 L 25.3610 5.6412 L 25.3357 5.6415 L 23.7528 5.7084 L 23.7268 5.7103 L 22.2153 5.8664 L 22.1876 5.8701 L 20.7473 6.1141 L 20.7189 6.1199 L 19.3501 6.4477 L 19.3215 6.4556 L 18.0230 6.8630 L 17.9941 6.8732 L 16.7657 7.3571 L 16.7368 7.3698 L 15.5790 7.9272 L 15.5509 7.9421 L 14.4624 8.5691 L 14.4349 8.5863 L 13.4152 9.2810 L 13.3892 9.3002 L 12.4390 10.0579 L 12.4145 10.0790 L 11.5324 10.8978 L 11.5098 10.9204 L 10.6956 11.7978 L 10.6751 11.8216 L 9.9297 12.7529 L 9.9113 12.7776 L 9.2336 13.7611 L 9.2174 13.7864 L 8.6074 14.8193 L 8.5934 14.8451 L 8.0519 15.9241 L 8.0403 15.9493 L 7.5658 17.0701 L 7.5557 17.0962 L 7.1512 18.2572 L 7.1433 18.2821 L 6.8058 19.4807 L 6.7995 19.5056 L 6.5312 20.7366 L 6.5266 20.7608 L 6.3267 22.0224 L 6.3236 22.0461 L 6.1921 23.3352 L 6.1904 23.3586 L 6.1285 24.6703 L 6.1281 24.6928 L 6.1349 26.0251 L 6.1356 26.0473 L 6.2123 27.3975 L 6.2140 27.4184 L 6.3587 28.7822 L 6.3614 28.8032 L 6.5760 30.1774 L 6.5797 30.1976 L 6.8633 31.5784 L 6.8679 31.5983 L 7.2234 32.9907 L 7.2250 32.9966 L 7.4629 33.8762 L 7.4674 33.8918 L 7.7343 34.7483 L 7.7394 34.7638 L 8.0357 35.6015 L 8.0414 35.6168 L 8.3669 36.4363 L 8.3735 36.4522 L 8.7282 37.2507 L 8.7354 37.2659 L 9.1185 38.0450 L 9.1262 38.0599 L 9.5367 38.8182 L 9.5451 38.8330 L 9.9828 39.5704 L 9.9919 39.5851 L 10.4562 40.3001 L 10.4655 40.3137 L 10.9550 41.0079 L 10.9656 41.0222 L 11.4811 41.6924 L 11.4921 41.7061 L 12.0335 42.3532 L 12.0444 42.3657 L 12.6090 42.9900 L 12.6216 43.0034 L 13.2115 43.6020 L 13.2237 43.6139 L 13.8365 44.1886 L 13.8492 44.2000 L 14.4843 44.7499 L 14.4979 44.7613 L 15.1552 45.2846 L 15.1693 45.2953 L 15.8495 45.7925 L 15.8634 45.8023 L 16.5642 46.2730 L 16.5790 46.2826 L 17.3012 46.7259 L 17.3162 46.7347 L 18.0582 47.1497 L 18.0735 47.1579 L 18.8352 47.5446 L 18.8506 47.5520 L 19.6320 47.9104 L 19.6481 47.9174 L 20.4481 48.2454 L 20.4641 48.2516 L 21.2821 48.5494 L 21.2982 48.5549 L 22.1342 48.8225 L 22.1502 48.8273 L 23.0040 49.0645 L 23.0205 49.0687 L 23.8901 49.2736 L 23.9065 49.2772 L 24.7931 49.4498 L 24.8096 49.4526 L 25.6197 49.5778 L 25.7852 49.5711 L 25.9359 49.5023 L 26.0494 49.3816 L 26.1089 49.2270 L 26.1055 49.0614 L 26.0397 48.9093 L 25.9214 48.7934 L 25.0070 48.1930 L 25.0063 48.1925 L 25.0035 48.1907 L 25.0028 48.1902 L 24.8461 48.0785 L 24.8426 48.0758 L 24.8377 48.0715 L 24.8331 48.0666 L 24.8306 48.0626 L 24.8290 48.0582 L 24.8244 48.0308 L 24.8188 48.0317 L 24.7802 47.8958 L 24.6661 47.7588 L 24.5062 47.6799 L 24.5037 47.6792 L 24.5021 47.6788 L 24.4959 47.6769 L 24.4943 47.6764 L 23.9470 47.4930 L 23.9454 47.4924 L 23.9390 47.4900 L 23.9374 47.4894 L 23.4191 47.2697 L 23.4175 47.2689 L 23.4113 47.2660 L 23.4098 47.2653 L 22.9202 47.0111 L 22.9187 47.0103 L 22.9127 47.0069 L 22.9112 47.0060 L 22.4524 46.7205 L 22.4509 46.7195 L 22.4451 46.7156 L 22.4437 46.7145 L 22.0166 46.3987 L 22.0152 46.3976 L 22.0097 46.3931 L 22.0083 46.3920 L 21.6138 46.0477 L 21.6125 46.0465 L 21.6074 46.0417 L 21.6061 46.0404 L 21.2441 45.6695 L 21.2429 45.6682 L 21.2382 45.6630 L 21.2370 45.6617 L 20.9085 45.2663 L 20.9074 45.2649 L 20.9031 45.2593 L 20.9021 45.2579 L 20.6081 44.8400 L 20.6071 44.8385 L 20.6014 44.8297 L 20.5005 44.7203 L 20.3683 44.6519 L 20.2207 44.6327 L 20.0755 44.6649 L 19.9729 44.7073 L 19.9710 44.7080 L 19.9639 44.7106 L 19.9621 44.7112 L 19.7870 44.7664 L 19.7851 44.7670 L 19.7777 44.7690 L 19.7758 44.7694 L 19.5947 44.8094 L 19.5929 44.8098 L 19.5858 44.8111 L 19.5839 44.8114 L 19.4013 44.8361 L 19.3992 44.8363 L 19.3911 44.8371 L 19.3890 44.8372 L 19.2055 44.8448 L 19.2036 44.8448 L 19.1964 44.8448 L 19.1945 44.8448 L 19.0110 44.8372 L 19.0089 44.8371 L 19.0008 44.8363 L 18.9987 44.8361 L 18.8161 44.8114 L 18.8142 44.8111 L 18.8071 44.8098 L 18.8053 44.8094 L 18.6242 44.7694 L 18.6223 44.7690 L 18.6149 44.7670 L 18.6130 44.7664 L 18.4379 44.7112 L 18.4361 44.7106 L 18.4290 44.7080 L 18.4271 44.7073 L 18.2567 44.6369 L 18.2549 44.6361 L 18.2482 44.6329 L 18.2464 44.6321 L 18.0828 44.5474 L 18.0810 44.5465 L 18.0742 44.5425 L 18.0725 44.5415 L 17.9174 44.4426 L 17.9158 44.4415 L 17.9097 44.4372 L 17.9081 44.4360 L 17.7615 44.3237 L 17.7600 44.3225 L 17.7541 44.3175 L 17.7526 44.3162 L 17.6166 44.1916 L 17.6152 44.1903 L 17.6097 44.1848 L 17.6084 44.1834 L 17.4838 44.0474 L 17.4825 44.0459 L 17.4775 44.0400 L 17.4763 44.0385 L 17.3640 43.8919 L 17.3628 43.8903 L 17.3585 43.8842 L 17.3574 43.8826 L 17.2585 43.7275 L 17.2575 43.7258 L 17.2535 43.7190 L 17.2526 43.7172 L 17.1679 43.5536 L 17.1671 43.5518 L 17.1639 43.5451 L 17.1631 43.5433 L 17.0927 43.3729 L 17.0920 43.3710 L 17.0894 43.3639 L 17.0888 43.3621 L 17.0336 43.1870 L 17.0330 43.1851 L 17.0310 43.1777 L 17.0306 43.1758 L 16.9906 42.9947 L 16.9902 42.9929 L 16.9889 42.9858 L 16.9886 42.9839 L 16.9639 42.8013 L 16.9637 42.7992 L 16.9629 42.7911 L 16.9628 42.7890 L 16.9552 42.6055 L 16.9552 42.6036 L 16.9552 42.5964 L 16.9552 42.5945 L 16.9628 42.4110 L 16.9629 42.4089 L 16.9637 42.4008 L 16.9639 42.3987 L 16.9886 42.2161 L 16.9889 42.2142 L 16.9902 42.2071 L 16.9906 42.2053 L 17.0306 42.0242 L 17.0310 42.0223 L 17.0330 42.0149 L 17.0336 42.0130 L 17.0888 41.8379 L 17.0894 41.8361 L 17.0920 41.8290 L 17.0927 41.8271 L 17.1631 41.6567 L 17.1639 41.6549 L 17.1671 41.6482 L 17.1679 41.6464 L 17.2526 41.4828 L 17.2553 41.4778 L 17.3055 41.3179 L 17.2907 41.1510 Z" fill="#d3aa61" fill-rule="evenodd" stroke="none" /><path id="color-region-03" d="M 34.1761 35.9993 L 34.1767 35.9946 L 34.1782 35.9902 L 34.1816 35.9844 L 34.1859 35.9784 L 34.2618 35.7864 L 34.2396 35.5812 L 34.2222 35.5336 L 34.0790 35.3392 L 33.9078 35.2087 L 33.8906 35.1962 L 33.6180 35.0090 L 33.4878 34.9487 L 33.3450 34.9345 L 33.2055 34.9681 L 33.0921 35.0166 L 33.0907 35.0172 L 33.0854 35.0192 L 33.0840 35.0198 L 32.4685 35.2365 L 32.4671 35.2369 L 32.4619 35.2386 L 32.4606 35.2390 L 31.8073 35.4239 L 31.8063 35.4242 L 31.0810 35.6314 L 31.0801 35.6317 L 31.0766 35.6326 L 31.0756 35.6328 L 30.3611 35.8048 L 30.3602 35.8050 L 30.3565 35.8058 L 30.3555 35.8060 L 29.6490 35.9441 L 29.6481 35.9443 L 29.6445 35.9449 L 29.6436 35.9450 L 28.9481 36.0514 L 28.9471 36.0515 L 28.9434 36.0520 L 28.9424 36.0521 L 28.2571 36.1266 L 28.2561 36.1267 L 28.2522 36.1270 L 28.2512 36.1271 L 27.5789 36.1698 L 27.5780 36.1699 L 27.5741 36.1700 L 27.5731 36.1700 L 26.9129 36.1829 L 26.9119 36.1830 L 26.9079 36.1829 L 26.9069 36.1829 L 26.2608 36.1661 L 26.2598 36.1660 L 26.2558 36.1658 L 26.2547 36.1658 L 25.6248 36.1201 L 25.6237 36.1200 L 25.6195 36.1196 L 25.6184 36.1195 L 25.0034 36.0451 L 25.0024 36.0450 L 24.9985 36.0444 L 24.9975 36.0443 L 24.3996 35.9441 L 24.3984 35.9439 L 24.3941 35.9431 L 24.3929 35.9428 L 23.8132 35.8150 L 23.8121 35.8147 L 23.8080 35.8137 L 23.8069 35.8134 L 23.2462 35.6609 L 23.2450 35.6605 L 23.2406 35.6592 L 23.2395 35.6589 L 22.6987 35.4806 L 22.6977 35.4802 L 22.6935 35.4787 L 22.6925 35.4784 L 22.5616 35.4278 L 22.3941 35.3992 L 22.2286 35.4376 L 22.0909 35.5372 L 21.8076 35.8439 L 21.7890 35.8654 L 21.3747 36.3782 L 21.3579 36.4005 L 20.9915 36.9196 L 20.9752 36.9444 L 20.6578 37.4671 L 20.6428 37.4939 L 20.3726 38.0202 L 20.3597 38.0476 L 20.1335 38.5765 L 20.1222 38.6059 L 19.9412 39.1330 L 19.9319 39.1638 L 19.7946 39.6886 L 19.7875 39.7205 L 19.6927 40.2412 L 19.6881 40.2740 L 19.6347 40.7900 L 19.6325 40.8233 L 19.6194 41.3329 L 19.6199 41.3664 L 19.6460 41.8669 L 19.6491 41.9005 L 19.7134 42.3897 L 19.7193 42.4236 L 19.8217 42.9022 L 19.8301 42.9350 L 19.9687 43.4002 L 19.9800 43.4331 L 20.1546 43.8827 L 20.1685 43.9147 L 20.3787 44.3480 L 20.3946 44.3778 L 20.6380 44.7931 L 20.6573 44.8231 L 20.9349 45.2177 L 20.9559 45.2451 L 21.2666 45.6190 L 21.2896 45.6446 L 21.6322 45.9955 L 21.6571 46.0191 L 22.0306 46.3451 L 22.0576 46.3668 L 22.4622 46.6660 L 22.4907 46.6854 L 22.9262 46.9564 L 22.9552 46.9730 L 23.4208 47.2146 L 23.4511 47.2289 L 23.9445 47.4381 L 23.9757 47.4499 L 24.4981 47.6250 L 24.5284 47.6339 L 25.0797 47.7746 L 25.1111 47.7813 L 25.6882 47.8835 L 25.7189 47.8878 L 26.3241 47.9505 L 26.3535 47.9526 L 26.9959 47.9748 L 26.9979 47.9750 L 27.0061 47.9756 L 27.0082 47.9758 L 27.7058 48.0656 L 27.7293 48.0680 L 28.3877 48.1161 L 28.4125 48.1172 L 29.0373 48.1268 L 29.0639 48.1264 L 29.6557 48.0987 L 29.6842 48.0964 L 30.2417 48.0330 L 30.2727 48.0284 L 30.7965 47.9296 L 30.8281 47.9224 L 31.3197 47.7906 L 31.3530 47.7803 L 31.8108 47.6168 L 31.8439 47.6034 L 32.2709 47.4097 L 32.3055 47.3921 L 32.7000 47.1683 L 32.7324 47.1479 L 33.0979 46.8951 L 33.1287 46.8717 L 33.4650 46.5912 L 33.4940 46.5646 L 33.8005 46.2572 L 33.8271 46.2279 L 34.1049 45.8926 L 34.1279 45.8622 L 34.3774 45.4998 L 34.3969 45.4688 L 34.6190 45.0789 L 34.6352 45.0475 L 34.8290 44.6312 L 34.8417 44.6009 L 35.0076 44.1591 L 35.0178 44.1287 L 35.1546 43.6612 L 35.1620 43.6322 L 35.2694 43.1403 L 35.2745 43.1125 L 35.3523 42.5957 L 35.3553 42.5703 L 35.4040 42.0304 L 35.4054 42.0065 L 35.4246 41.4454 L 35.4248 41.4222 L 35.4132 40.8400 L 35.4123 40.8183 L 35.3698 40.2165 L 35.3679 40.1962 L 35.2943 39.5747 L 35.2917 39.5563 L 35.1879 38.9175 L 35.1846 38.8997 L 35.0494 38.2440 L 35.0455 38.2271 L 34.8787 37.5561 L 34.8747 37.5409 L 34.6771 36.8544 L 34.6728 36.8403 L 34.5595 36.4918 L 34.5583 36.4875 L 34.5569 36.4811 L 34.5559 36.4725 L 34.5556 36.4554 L 34.5526 36.4554 L 34.5375 36.3202 L 34.4607 36.1770 L 34.3363 36.0725 L 34.2123 36.0316 L 34.2132 36.0277 L 34.1966 36.0239 L 34.1902 36.0218 L 34.1861 36.0194 L 34.1826 36.0164 L 34.1798 36.0127 L 34.1777 36.0085 L 34.1765 36.0039 Z" fill="#fff5de" fill-rule="evenodd" stroke="none" /><path id="color-region-04" d="M 53.2686 47.6141 L 53.4289 47.4777 L 53.4777 47.4289 L 53.6141 47.2686 L 53.6531 47.2149 L 53.7638 47.0347 L 53.7947 46.9741 L 53.8753 46.7793 L 53.8960 46.7156 L 53.9452 46.5113 L 53.9559 46.4440 L 53.9737 46.2157 L 53.9750 46.1823 L 53.9750 42.6177 L 53.9737 42.5843 L 53.9559 42.3560 L 53.9452 42.2887 L 53.8960 42.0844 L 53.8753 42.0207 L 53.7947 41.8259 L 53.7638 41.7653 L 53.6531 41.5851 L 53.6141 41.5314 L 53.4777 41.3711 L 53.4289 41.3223 L 53.2686 41.1859 L 53.2149 41.1469 L 53.0347 41.0362 L 52.9741 41.0053 L 52.7793 40.9247 L 52.7156 40.9040 L 52.5113 40.8548 L 52.4440 40.8441 L 52.2157 40.8263 L 52.1823 40.8250 L 40.2177 40.8250 L 40.1843 40.8263 L 39.9560 40.8441 L 39.8887 40.8548 L 39.6844 40.9040 L 39.6207 40.9247 L 39.4259 41.0053 L 39.3653 41.0362 L 39.1851 41.1469 L 39.1314 41.1859 L 38.9711 41.3223 L 38.9223 41.3711 L 38.7859 41.5314 L 38.7469 41.5851 L 38.6362 41.7653 L 38.6053 41.8259 L 38.5247 42.0207 L 38.5040 42.0844 L 38.4548 42.2887 L 38.4441 42.3560 L 38.4263 42.5843 L 38.4250 42.6177 L 38.4250 46.1823 L 38.4263 46.2157 L 38.4441 46.4440 L 38.4548 46.5113 L 38.5040 46.7156 L 38.5247 46.7793 L 38.6053 46.9741 L 38.6362 47.0347 L 38.7469 47.2149 L 38.7859 47.2686 L 38.9223 47.4289 L 38.9711 47.4777 L 39.1314 47.6141 L 39.1851 47.6531 L 39.3653 47.7638 L 39.4259 47.7947 L 39.6207 47.8753 L 39.6844 47.8960 L 39.8887 47.9452 L 39.9560 47.9559 L 40.1843 47.9737 L 40.2177 47.9750 L 52.1823 47.9750 L 52.2157 47.9737 L 52.4440 47.9559 L 52.5113 47.9452 L 52.7156 47.8960 L 52.7793 47.8753 L 52.9741 47.7947 L 53.0347 47.7638 L 53.2149 47.6531 Z" fill="#726080" fill-rule="evenodd" stroke="none" /><path id="color-region-05" d="M 19.1342 40.4077 L 19.0292 40.4121 L 18.9893 40.4156 L 18.8371 40.4362 L 18.8020 40.4425 L 18.6499 40.4761 L 18.6135 40.4859 L 18.4673 40.5319 L 18.4323 40.5446 L 18.2895 40.6037 L 18.2562 40.6191 L 18.1198 40.6897 L 18.0861 40.7091 L 17.9569 40.7916 L 17.9267 40.8127 L 17.8041 40.9067 L 17.7751 40.9309 L 17.6616 41.0350 L 17.6350 41.0616 L 17.5309 41.1751 L 17.5067 41.2041 L 17.4127 41.3267 L 17.3916 41.3569 L 17.3091 41.4861 L 17.2897 41.5198 L 17.2191 41.6562 L 17.2037 41.6895 L 17.1446 41.8323 L 17.1319 41.8673 L 17.0859 42.0135 L 17.0761 42.0499 L 17.0425 42.2020 L 17.0362 42.2371 L 17.0156 42.3893 L 17.0121 42.4292 L 17.0058 42.5822 L 17.0058 42.6178 L 17.0121 42.7708 L 17.0156 42.8107 L 17.0362 42.9629 L 17.0425 42.9980 L 17.0761 43.1501 L 17.0859 43.1865 L 17.1319 43.3327 L 17.1446 43.3677 L 17.2037 43.5105 L 17.2191 43.5438 L 17.2897 43.6802 L 17.3091 43.7139 L 17.3916 43.8431 L 17.4127 43.8733 L 17.5067 43.9959 L 17.5309 44.0249 L 17.6350 44.1384 L 17.6616 44.1650 L 17.7751 44.2691 L 17.8041 44.2933 L 17.9267 44.3873 L 17.9569 44.4084 L 18.0861 44.4909 L 18.1198 44.5103 L 18.2562 44.5809 L 18.2895 44.5963 L 18.4323 44.6554 L 18.4673 44.6681 L 18.6135 44.7141 L 18.6499 44.7239 L 18.8020 44.7575 L 18.8371 44.7638 L 18.9893 44.7844 L 19.0292 44.7879 L 19.1822 44.7942 L 19.2178 44.7942 L 19.3708 44.7879 L 19.4107 44.7844 L 19.5629 44.7638 L 19.5980 44.7575 L 19.7501 44.7239 L 19.7865 44.7141 L 19.9311 44.6686 L 20.0900 44.5776 L 20.1967 44.4287 L 20.2317 44.2489 L 20.1887 44.0708 L 20.1174 43.9238 L 20.1166 43.9222 L 20.1138 43.9157 L 20.1131 43.9140 L 19.9283 43.4381 L 19.9276 43.4364 L 19.9254 43.4297 L 19.9248 43.4280 L 19.7783 42.9362 L 19.7778 42.9345 L 19.7761 42.9278 L 19.7757 42.9261 L 19.6675 42.4204 L 19.6671 42.4187 L 19.6659 42.4118 L 19.6657 42.4100 L 19.5978 41.8934 L 19.5976 41.8917 L 19.5969 41.8849 L 19.5968 41.8831 L 19.5693 41.3555 L 19.5692 41.3537 L 19.5691 41.3469 L 19.5691 41.3452 L 19.5819 40.8484 L 19.5507 40.6764 L 19.4537 40.5309 L 19.3067 40.4362 Z" fill="#fff5de" fill-rule="evenodd" stroke="none" /><path id="color-region-06" d="M 42.7792 44.0482 L 42.7798 44.0436 L 42.7819 44.0372 L 42.7846 44.0313 L 42.7866 44.0274 L 43.1142 43.4604 L 43.1681 43.3019 L 43.1574 43.1347 L 43.0837 42.9844 L 42.9581 42.8736 L 42.7997 42.8192 L 42.7585 42.8136 L 42.7189 42.8101 L 42.6183 42.8058 L 42.5817 42.8058 L 42.4811 42.8101 L 42.4415 42.8136 L 42.3402 42.8273 L 42.3067 42.8333 L 42.2073 42.8549 L 42.1681 42.8653 L 42.0715 42.8961 L 42.0381 42.9083 L 41.9432 42.9474 L 41.9087 42.9635 L 41.8195 43.0098 L 41.7864 43.0290 L 41.7010 43.0835 L 41.6706 43.1048 L 41.5888 43.1677 L 41.5622 43.1898 L 41.4876 43.2573 L 41.4573 43.2876 L 41.3898 43.3622 L 41.3677 43.3888 L 41.3048 43.4706 L 41.2835 43.5010 L 41.2290 43.5864 L 41.2098 43.6195 L 41.1635 43.7087 L 41.1474 43.7432 L 41.1083 43.8381 L 41.0961 43.8715 L 41.0653 43.9681 L 41.0549 44.0073 L 41.0333 44.1067 L 41.0273 44.1402 L 41.0136 44.2415 L 41.0101 44.2811 L 41.0058 44.3817 L 41.0058 44.4183 L 41.0101 44.5189 L 41.0136 44.5585 L 41.0273 44.6598 L 41.0333 44.6933 L 41.0549 44.7927 L 41.0653 44.8319 L 41.0961 44.9285 L 41.1083 44.9619 L 41.1474 45.0568 L 41.1635 45.0913 L 41.2098 45.1805 L 41.2290 45.2136 L 41.2835 45.2990 L 41.3048 45.3294 L 41.3677 45.4112 L 41.3898 45.4378 L 41.4573 45.5124 L 41.4876 45.5427 L 41.5622 45.6102 L 41.5888 45.6323 L 41.6706 45.6952 L 41.7010 45.7165 L 41.7864 45.7710 L 41.8195 45.7902 L 41.9087 45.8365 L 41.9432 45.8526 L 42.0381 45.8917 L 42.0715 45.9039 L 42.1681 45.9347 L 42.2073 45.9451 L 42.3067 45.9667 L 42.3402 45.9727 L 42.4415 45.9864 L 42.4811 45.9899 L 42.5817 45.9942 L 42.6183 45.9942 L 42.7189 45.9899 L 42.7585 45.9864 L 42.8598 45.9727 L 42.8933 45.9667 L 42.9927 45.9451 L 43.0319 45.9347 L 43.1285 45.9039 L 43.1619 45.8917 L 43.2568 45.8526 L 43.2913 45.8365 L 43.3805 45.7902 L 43.4136 45.7710 L 43.4990 45.7165 L 43.5294 45.6952 L 43.6112 45.6323 L 43.6378 45.6102 L 43.7124 45.5427 L 43.7427 45.5124 L 43.8102 45.4378 L 43.8323 45.4112 L 43.8952 45.3294 L 43.9165 45.2990 L 43.9710 45.2136 L 43.9902 45.1805 L 44.0365 45.0913 L 44.0526 45.0568 L 44.0917 44.9619 L 44.1039 44.9285 L 44.1347 44.8319 L 44.1451 44.7927 L 44.1667 44.6933 L 44.1727 44.6598 L 44.1864 44.5585 L 44.1899 44.5189 L 44.1942 44.4183 L 44.1942 44.3817 L 44.1899 44.2811 L 44.1864 44.2415 L 44.1727 44.1402 L 44.1667 44.1067 L 44.1451 44.0073 L 44.1347 43.9681 L 44.1039 43.8715 L 44.0917 43.8381 L 44.0526 43.7432 L 44.0365 43.7087 L 43.9902 43.6195 L 43.9710 43.5864 L 43.9165 43.5010 L 43.8952 43.4706 L 43.8708 43.4388 L 43.7446 43.3283 L 43.5858 43.2744 L 43.4184 43.2853 L 43.2680 43.3595 L 43.1574 43.4856 L 42.8299 44.0524 L 42.8275 44.0561 L 42.8237 44.0614 L 42.8193 44.0664 L 42.8156 44.0693 L 42.8114 44.0713 L 42.8069 44.0725 L 42.8022 44.0728 L 42.7976 44.0722 L 42.7931 44.0707 L 42.7891 44.0684 L 42.7856 44.0653 L 42.7827 44.0616 L 42.7807 44.0574 L 42.7795 44.0529 Z" fill="#d3aa61" fill-rule="evenodd" stroke="none" /><path id="color-region-07" d="M 50.8256 20.3719 L 50.8559 20.3142 L 50.8730 20.2777 L 50.8973 20.2189 L 50.9101 20.1835 L 50.9294 20.1217 L 50.9388 20.0869 L 50.9529 20.0235 L 50.9599 19.9836 L 50.9680 19.9195 L 50.9709 19.8861 L 50.9740 19.8205 L 50.9740 19.7795 L 50.9709 19.7139 L 50.9680 19.6805 L 50.9599 19.6164 L 50.9529 19.5765 L 50.9388 19.5131 L 50.9294 19.4783 L 50.9101 19.4165 L 50.8973 19.3811 L 50.8730 19.3223 L 50.8559 19.2858 L 50.8256 19.2281 L 50.8079 19.1977 L 50.7729 19.1427 L 50.7507 19.1110 L 50.7096 19.0577 L 50.6891 19.0331 L 50.6468 18.9860 L 50.6140 18.9532 L 50.5669 18.9109 L 50.5423 18.8904 L 50.4890 18.8493 L 50.4573 18.8271 L 50.4023 18.7921 L 50.3719 18.7744 L 50.3142 18.7441 L 50.2777 18.7270 L 50.2189 18.7027 L 50.1835 18.6899 L 50.1217 18.6706 L 50.0869 18.6612 L 50.0235 18.6471 L 49.9836 18.6401 L 49.9195 18.6320 L 49.8861 18.6291 L 49.8205 18.6260 L 49.7795 18.6260 L 49.7139 18.6291 L 49.6805 18.6320 L 49.6164 18.6401 L 49.5765 18.6471 L 49.5131 18.6612 L 49.4783 18.6706 L 49.4165 18.6899 L 49.3811 18.7027 L 49.3223 18.7270 L 49.2858 18.7441 L 49.2281 18.7744 L 49.1977 18.7921 L 49.1427 18.8271 L 49.1110 18.8493 L 49.0577 18.8904 L 49.0331 18.9109 L 48.9860 18.9532 L 48.9532 18.9860 L 48.9109 19.0331 L 48.8904 19.0577 L 48.8493 19.1110 L 48.8271 19.1427 L 48.7921 19.1977 L 48.7744 19.2281 L 48.7441 19.2858 L 48.7270 19.3223 L 48.7027 19.3811 L 48.6899 19.4165 L 48.6706 19.4783 L 48.6612 19.5131 L 48.6471 19.5765 L 48.6401 19.6164 L 48.6320 19.6805 L 48.6291 19.7139 L 48.6260 19.7795 L 48.6260 19.8205 L 48.6291 19.8861 L 48.6320 19.9195 L 48.6401 19.9836 L 48.6471 20.0235 L 48.6612 20.0869 L 48.6706 20.1217 L 48.6899 20.1835 L 48.7027 20.2189 L 48.7270 20.2777 L 48.7441 20.3142 L 48.7744 20.3719 L 48.7921 20.4023 L 48.8271 20.4573 L 48.8493 20.4890 L 48.8904 20.5423 L 48.9109 20.5669 L 48.9532 20.6140 L 48.9860 20.6468 L 49.0331 20.6891 L 49.0577 20.7096 L 49.1110 20.7507 L 49.1427 20.7729 L 49.1977 20.8079 L 49.2281 20.8256 L 49.2858 20.8559 L 49.3223 20.8730 L 49.3811 20.8973 L 49.4165 20.9101 L 49.4783 20.9294 L 49.5131 20.9388 L 49.5765 20.9529 L 49.6164 20.9599 L 49.6805 20.9680 L 49.7139 20.9709 L 49.7795 20.9740 L 49.8205 20.9740 L 49.8861 20.9709 L 49.9195 20.9680 L 49.9836 20.9599 L 50.0235 20.9529 L 50.0869 20.9388 L 50.1217 20.9294 L 50.1835 20.9101 L 50.2189 20.8973 L 50.2777 20.8730 L 50.3142 20.8559 L 50.3719 20.8256 L 50.4023 20.8079 L 50.4573 20.7729 L 50.4890 20.7507 L 50.5423 20.7096 L 50.5669 20.6891 L 50.6140 20.6468 L 50.6468 20.6140 L 50.6891 20.5669 L 50.7096 20.5423 L 50.7507 20.4890 L 50.7729 20.4573 L 50.8079 20.4023 Z" fill="#d3aa61" fill-rule="evenodd" stroke="none" /><path id="color-region-08" d="M 34.2376 35.3994 L 34.3440 35.4948 L 34.5100 35.5500 L 34.6843 35.5345 L 34.8380 35.4509 L 34.8399 35.4492 L 34.8472 35.4429 L 35.0530 35.2603 L 35.0594 35.2545 L 35.2640 35.0656 L 35.2679 35.0619 L 35.4705 34.8699 L 35.4767 34.8640 L 35.6759 34.6678 L 35.6789 34.6648 L 35.8777 34.4650 L 35.8807 34.4619 L 36.0765 34.2612 L 36.0795 34.2581 L 36.0857 34.2516 L 36.1732 34.1166 L 36.2049 33.9588 L 36.1764 33.8004 L 36.0916 33.6636 L 35.9625 33.5675 L 35.8071 33.5256 L 35.6472 33.5438 L 35.5052 33.6195 L 35.2277 33.8431 L 35.2264 33.8441 L 35.2214 33.8478 L 35.2201 33.8487 L 34.7483 34.1764 L 34.7470 34.1773 L 34.7419 34.1806 L 34.7406 34.1814 L 34.2319 34.4846 L 34.2306 34.4854 L 34.2254 34.4882 L 34.2240 34.4890 L 34.1279 34.5377 L 33.9928 34.6451 L 33.9108 34.7970 L 33.8951 34.9689 L 33.9483 35.1331 L 34.0618 35.2632 L 34.2070 35.3739 L 34.2103 35.3767 L 34.2150 35.3810 L 34.2342 35.4025 Z" fill="#fff5de" fill-rule="evenodd" stroke="none" /><path id="color-region-09" d="M 43.3308 10.3344 L 43.3246 10.3384 L 43.3182 10.3416 L 43.3137 10.3435 L 43.1697 10.3964 L 43.0224 10.4879 L 42.9231 10.6301 L 42.8882 10.8000 L 42.9231 10.9699 L 43.0224 11.1121 L 43.1697 11.2036 L 43.3137 11.2565 L 43.3182 11.2584 L 43.3246 11.2616 L 43.3308 11.2656 L 43.3344 11.2692 L 43.3384 11.2754 L 43.3416 11.2818 L 43.3435 11.2863 L 43.3964 11.4303 L 43.4879 11.5776 L 43.6301 11.6769 L 43.8000 11.7118 L 43.9699 11.6769 L 44.1121 11.5776 L 44.2036 11.4303 L 44.2565 11.2863 L 44.2584 11.2818 L 44.2616 11.2754 L 44.2656 11.2692 L 44.2692 11.2656 L 44.2754 11.2616 L 44.2818 11.2584 L 44.2863 11.2565 L 44.4303 11.2036 L 44.5776 11.1121 L 44.6769 10.9699 L 44.7118 10.8000 L 44.6769 10.6301 L 44.5776 10.4879 L 44.4303 10.3964 L 44.2863 10.3435 L 44.2818 10.3416 L 44.2754 10.3384 L 44.2692 10.3344 L 44.2656 10.3308 L 44.2616 10.3246 L 44.2584 10.3182 L 44.2565 10.3137 L 44.2036 10.1697 L 44.1121 10.0224 L 43.9699 9.9231 L 43.8000 9.8882 L 43.6301 9.9231 L 43.4879 10.0224 L 43.3964 10.1697 L 43.3435 10.3137 L 43.3416 10.3182 L 43.3384 10.3246 L 43.3344 10.3308 Z" fill="#fff5de" fill-rule="evenodd" stroke="none" /><path d="M 30.600 6.000 L 28.779 5.771 L 27.028 5.644 L 25.348 5.616 L 23.738 5.684 L 22.198 5.843 L 20.728 6.092 L 19.329 6.427 L 18.000 6.844 L 16.741 7.340 L 15.553 7.912 L 14.435 8.556 L 13.387 9.270 L 12.410 10.049 L 11.503 10.891 L 10.666 11.793 L 9.900 12.750 L 9.204 13.760 L 8.578 14.820 L 8.023 15.926 L 7.537 17.074 L 7.123 18.262 L 6.778 19.487 L 6.504 20.744 L 6.300 22.031 L 6.166 23.345 L 6.103 24.681 L 6.110 26.037 L 6.188 27.410 L 6.335 28.796 L 6.553 30.192 L 6.841 31.594 L 7.200 33.000 L 7.441 33.891 L 7.713 34.764 L 8.015 35.618 L 8.347 36.454 L 8.709 37.269 L 9.100 38.064 L 9.519 38.838 L 9.966 39.591 L 10.440 40.321 L 10.940 41.030 L 11.467 41.715 L 12.020 42.376 L 12.597 43.014 L 13.200 43.626 L 13.826 44.213 L 14.475 44.775 L 15.147 45.310 L 15.842 45.818 L 16.558 46.299 L 17.296 46.752 L 18.054 47.176 L 18.832 47.571 L 19.630 47.937 L 20.447 48.272 L 21.282 48.576 L 22.135 48.849 L 23.006 49.091 L 23.893 49.300 L 24.797 49.476 L 25.716 49.618 L 26.651 49.726 L 27.600 49.800 L 26.280 48.999 L 25.019 48.171 L 24.852 48.052" fill="none" stroke="#000000" stroke-width="0.39" stroke-linecap="round" stroke-linejoin="round" />
<path d="M 17.249 41.007 L 17.033 40.738 L 16.293 39.728 L 15.608 38.705 L 14.980 37.669 L 14.406 36.622 L 13.888 35.565 L 13.425 34.500 L 13.016 33.428 L 12.662 32.350 L 12.361 31.268 L 12.114 30.183 L 11.920 29.096 L 11.778 28.008 L 11.690 26.922 L 11.653 25.837 L 11.668 24.757 L 11.735 23.681 L 11.853 22.611 L 12.022 21.548 L 12.242 20.495 L 12.511 19.451 L 12.831 18.419 L 13.200 17.400 L 13.546 16.790 L 13.910 16.198 L 14.290 15.622 L 14.686 15.064 L 15.098 14.524 L 15.526 14.000 L 15.968 13.493 L 16.425 13.003 L 16.896 12.530 L 17.381 12.073 L 17.878 11.633 L 18.389 11.209 L 18.912 10.801 L 19.018 10.723" fill="none" stroke="#000000" stroke-width="0.39" stroke-linecap="round" stroke-linejoin="round" />
<path d="M 20.177 9.915 L 20.550 9.675 L 21.118 9.331 L 21.696 9.003 L 22.283 8.691 L 22.880 8.394 L 23.485 8.113 L 24.099 7.846 L 24.721 7.595 L 25.350 7.359 L 25.986 7.138 L 26.629 6.932 L 27.278 6.741 L 27.933 6.564 L 28.593 6.401 L 29.258 6.253 L 29.927 6.120 L 30.600 6.000" fill="none" stroke="#000000" stroke-width="0.39" stroke-linecap="round" stroke-linejoin="round" />
<path d="M 20.412 44.458 L 20.310 44.523 L 20.138 44.612 L 19.959 44.686 L 19.775 44.744 L 19.585 44.786 L 19.393 44.812 L 19.200 44.820 L 19.007 44.812 L 18.815 44.786 L 18.625 44.744 L 18.441 44.686 L 18.262 44.612 L 18.090 44.523 L 17.927 44.419 L 17.773 44.301 L 17.630 44.170 L 17.499 44.027 L 17.381 43.873 L 17.277 43.710 L 17.188 43.538 L 17.114 43.359 L 17.056 43.175 L 17.014 42.985 L 16.988 42.793 L 16.980 42.600 L 16.988 42.407 L 17.014 42.215 L 17.056 42.025 L 17.114 41.841 L 17.188 41.662 L 17.277 41.490 L 17.381 41.327 L 17.499 41.173 L 17.630 41.030 L 17.773 40.899 L 17.927 40.781 L 18.090 40.677 L 18.262 40.588 L 18.441 40.514 L 18.625 40.456 L 18.815 40.414 L 19.007 40.388 L 19.200 40.380 L 19.393 40.388 L 19.585 40.414 L 19.647 40.427" fill="none" stroke="#000000" stroke-width="0.39" stroke-linecap="round" stroke-linejoin="round" />
<path d="M 22.284 35.294 L 22.264 35.313 L 21.779 35.838 L 21.346 36.374 L 20.962 36.918 L 20.628 37.468 L 20.343 38.023 L 20.104 38.582 L 19.912 39.141 L 19.766 39.699 L 19.665 40.254 L 19.608 40.805 L 19.594 41.350 L 19.622 41.886 L 19.691 42.411 L 19.801 42.925 L 19.950 43.425 L 20.138 43.909 L 20.364 44.375 L 20.626 44.822 L 20.925 45.247 L 21.259 45.649 L 21.627 46.026 L 22.028 46.376 L 22.462 46.697 L 22.928 46.987 L 23.425 47.245 L 23.951 47.468 L 24.506 47.654 L 25.090 47.803 L 25.700 47.911 L 26.337 47.977 L 27.000 48.000 L 27.715 48.092 L 28.399 48.142 L 29.051 48.152 L 29.672 48.123 L 30.261 48.056 L 30.818 47.951 L 31.344 47.810 L 31.837 47.634 L 32.300 47.424 L 32.730 47.180 L 33.129 46.904 L 33.497 46.597 L 33.833 46.260 L 34.137 45.893 L 34.409 45.498 L 34.650 45.075 L 34.859 44.626 L 35.037 44.152 L 35.183 43.653 L 35.297 43.131 L 35.379 42.586 L 35.430 42.020 L 35.450 41.434 L 35.438 40.828 L 35.394 40.204 L 35.318 39.562 L 35.211 38.904 L 35.072 38.230 L 34.901 37.542 L 34.699 36.840 L 34.580 36.474" fill="none" stroke="#000000" stroke-width="0.39" stroke-linecap="round" stroke-linejoin="round" />
<path d="M 34.371 35.868 L 34.200 35.400 L 33.914 35.182 L 33.617 34.978 L 33.414 34.852" fill="none" stroke="#000000" stroke-width="0.39" stroke-linecap="round" stroke-linejoin="round" />
<path d="M 21.000 22.200 L 20.780 21.585 L 20.571 20.978 L 20.373 20.379 L 20.187 19.789 L 20.011 19.210 L 19.848 18.642 L 19.696 18.085 L 19.556 17.541 L 19.429 17.009 L 19.314 16.492 L 19.212 15.990 L 19.123 15.503 L 19.047 15.032 L 18.984 14.578 L 18.935 14.142 L 18.900 13.725 L 18.879 13.327 L 18.872 12.949 L 18.880 12.592 L 18.902 12.257 L 18.940 11.944 L 18.992 11.654 L 19.060 11.388 L 19.144 11.147 L 19.243 10.931 L 19.358 10.742 L 19.490 10.579 L 19.638 10.445 L 19.803 10.339 L 19.985 10.262 L 20.184 10.216 L 20.400 10.200 L 20.679 10.219 L 20.955 10.275 L 21.227 10.366 L 21.495 10.491 L 21.758 10.647 L 22.016 10.833 L 22.270 11.047 L 22.519 11.287 L 22.762 11.553 L 23.000 11.841 L 23.232 12.150 L 23.459 12.478 L 23.679 12.824 L 23.892 13.186 L 24.100 13.562 L 24.300 13.950 L 24.493 14.349 L 24.679 14.756 L 24.858 15.171 L 25.029 15.591 L 25.192 16.014 L 25.347 16.439 L 25.493 16.864 L 25.631 17.287 L 25.760 17.707 L 25.881 18.122 L 25.991 18.529 L 26.093 18.928 L 26.185 19.316 L 26.267 19.692 L 26.339 20.054 L 26.400 20.400 L 26.514 20.346 L 26.632 20.295 L 26.752 20.247 L 26.876 20.203 L 27.002 20.163 L 27.130 20.126 L 27.261 20.092 L 27.394 20.062 L 27.528 20.036 L 27.664 20.013 L 27.801 19.994 L 27.940 19.978 L 28.079 19.966 L 28.219 19.957 L 28.359 19.952 L 28.500 19.950 L 28.641 19.952 L 28.781 19.957 L 28.921 19.966 L 29.060 19.978 L 29.199 19.994 L 29.336 20.013 L 29.472 20.036 L 29.606 20.062 L 29.739 20.092 L 29.870 20.126 L 29.998 20.163 L 30.124 20.203 L 30.248 20.247 L 30.368 20.295 L 30.486 20.346 L 30.600 20.400 L 30.658 19.843 L 30.720 19.297 L 30.785 18.763 L 30.854 18.241 L 30.927 17.733 L 31.005 17.239 L 31.086 16.759 L 31.172 16.294 L 31.262 15.845 L 31.357 15.412 L 31.456 14.997 L 31.560 14.599 L 31.669 14.220 L 31.782 13.860 L 31.901 13.520 L 32.025 13.200 L 32.154 12.901 L 32.289 12.624 L 32.429 12.370 L 32.575 12.138 L 32.726 11.931 L 32.883 11.747 L 33.046 11.589 L 33.216 11.456 L 33.391 11.350 L 33.573 11.271 L 33.761 11.219 L 33.955 11.196 L 34.156 11.202 L 34.364 11.237 L 34.578 11.303 L 34.800 11.400 L 35.013 11.530 L 35.202 11.693 L 35.368 11.887 L 35.512 12.111 L 35.636 12.363 L 35.739 12.641 L 35.822 12.942 L 35.887 13.266 L 35.935 13.609 L 35.966 13.972 L 35.981 14.350 L 35.981 14.743 L 35.967 15.149 L 35.940 15.566 L 35.901 15.992 L 35.850 16.425 L 35.789 16.863 L 35.718 17.305 L 35.638 17.748 L 35.550 18.191 L 35.455 18.632 L 35.354 19.068 L 35.248 19.499 L 35.137 19.922 L 35.023 20.335 L 34.907 20.737 L 34.788 21.125 L 34.669 21.498 L 34.549 21.854 L 34.431 22.191 L 34.314 22.507 L 34.200 22.800 L 34.741 23.095 L 35.241 23.416 L 35.699 23.761 L 36.115 24.129 L 36.490 24.517 L 36.824 24.923 L 37.116 25.345 L 37.369 25.781 L 37.581 26.230 L 37.752 26.689 L 37.884 27.157 L 37.976 27.630 L 38.028 28.109 L 38.041 28.589 L 38.015 29.070 L 37.950 29.550 L 37.846 30.026 L 37.704 30.497 L 37.524 30.960 L 37.305 31.413 L 37.049 31.855 L 36.756 32.284 L 36.424 32.698 L 36.056 33.094 L 35.651 33.470 L 35.209 33.826 L 34.731 34.158 L 34.216 34.465 L 33.666 34.744 L 33.079 34.995 L 32.457 35.214 L 31.800 35.400 L 31.072 35.608 L 30.353 35.781 L 29.642 35.920 L 28.942 36.027 L 28.252 36.102 L 27.575 36.145 L 26.910 36.158 L 26.259 36.141 L 25.624 36.095 L 25.004 36.020 L 24.401 35.919 L 23.816 35.790 L 23.250 35.636 L 22.704 35.456 L 22.178 35.253 L 21.675 35.025 L 21.194 34.775 L 20.738 34.502 L 20.306 34.208 L 19.900 33.894 L 19.520 33.560 L 19.169 33.207 L 18.846 32.836 L 18.553 32.447 L 18.291 32.041 L 18.060 31.620 L 17.863 31.183 L 17.699 30.732 L 17.570 30.268 L 17.476 29.790 L 17.419 29.301 L 17.400 28.800 L 17.404 28.521 L 17.414 28.245 L 17.432 27.973 L 17.456 27.704 L 17.488 27.440 L 17.527 27.180 L 17.572 26.924 L 17.625 26.672 L 17.685 26.424 L 17.752 26.182 L 17.825 25.943 L 17.906 25.710 L 17.994 25.481 L 18.089 25.257 L 18.191 25.039 L 18.300 24.825 L 18.416 24.617 L 18.539 24.414 L 18.669 24.216 L 18.806 24.025 L 18.950 23.839 L 19.102 23.658 L 19.260 23.484 L 19.425 23.316 L 19.597 23.153 L 19.777 22.998 L 19.963 22.848 L 20.156 22.705 L 20.357 22.569 L 20.564 22.439 L 20.779 22.316 L 21.000 22.200 Z" fill="none" stroke="#000000" stroke-width="0.39" stroke-linecap="round" stroke-linejoin="round" />
<path d="M 20.700 13.800 L 20.730 14.025 L 20.763 14.250 L 20.800 14.475 L 20.839 14.699 L 20.882 14.923 L 20.928 15.146 L 20.977 15.369 L 21.028 15.591 L 21.082 15.812 L 21.139 16.032 L 21.198 16.251 L 21.259 16.468 L 21.322 16.685 L 21.388 16.900 L 21.456 17.113 L 21.525 17.325 L 21.596 17.535 L 21.669 17.743 L 21.743 17.949 L 21.819 18.154 L 21.896 18.355 L 21.975 18.555 L 22.054 18.752 L 22.134 18.947 L 22.216 19.139 L 22.298 19.328 L 22.380 19.515 L 22.464 19.698 L 22.547 19.878 L 22.631 20.056 L 22.716 20.230 L 22.800 20.400" fill="none" stroke="#000000" stroke-width="0.39" stroke-linecap="round" stroke-linejoin="round" />
<path d="M 33.600 14.400 L 33.571 14.625 L 33.540 14.850 L 33.508 15.074 L 33.475 15.298 L 33.440 15.520 L 33.404 15.742 L 33.366 15.962 L 33.328 16.181 L 33.289 16.398 L 33.249 16.613 L 33.209 16.826 L 33.168 17.037 L 33.126 17.245 L 33.084 17.450 L 33.042 17.651 L 33.000 17.850 L 32.958 18.045 L 32.916 18.236 L 32.874 18.424 L 32.832 18.607 L 32.791 18.786 L 32.751 18.960 L 32.711 19.129 L 32.672 19.294 L 32.634 19.453 L 32.596 19.606 L 32.560 19.754 L 32.525 19.896 L 32.492 20.032 L 32.460 20.161 L 32.429 20.284 L 32.400 20.400" fill="none" stroke="#000000" stroke-width="0.39" stroke-linecap="round" stroke-linejoin="round" />
<path d="M 24.660 27.600 L 24.657 27.658 L 24.650 27.715 L 24.638 27.771 L 24.620 27.826 L 24.598 27.879 L 24.572 27.930 L 24.541 27.979 L 24.506 28.024 L 24.467 28.067 L 24.424 28.106 L 24.379 28.141 L 24.330 28.172 L 24.279 28.198 L 24.226 28.220 L 24.171 28.238 L 24.115 28.250 L 24.058 28.257 L 24.000 28.260 L 23.942 28.257 L 23.885 28.250 L 23.829 28.238 L 23.774 28.220 L 23.721 28.198 L 23.670 28.172 L 23.621 28.141 L 23.576 28.106 L 23.533 28.067 L 23.494 28.024 L 23.459 27.979 L 23.428 27.930 L 23.402 27.879 L 23.380 27.826 L 23.362 27.771 L 23.350 27.715 L 23.343 27.658 L 23.340 27.600 L 23.343 27.542 L 23.350 27.485 L 23.362 27.429 L 23.380 27.374 L 23.402 27.321 L 23.428 27.270 L 23.459 27.221 L 23.494 27.176 L 23.533 27.133 L 23.576 27.094 L 23.621 27.059 L 23.670 27.028 L 23.721 27.002 L 23.774 26.980 L 23.829 26.962 L 23.885 26.950 L 23.942 26.943 L 24.000 26.940 L 24.058 26.943 L 24.115 26.950 L 24.171 26.962 L 24.226 26.980 L 24.279 27.002 L 24.330 27.028 L 24.379 27.059 L 24.424 27.094 L 24.467 27.133 L 24.506 27.176 L 24.541 27.221 L 24.572 27.270 L 24.598 27.321 L 24.620 27.374 L 24.638 27.429 L 24.650 27.485 L 24.657 27.542 L 24.660 27.600 Z" fill="#000000" stroke="none" />
<path d="M 32.460 27.600 L 32.457 27.658 L 32.450 27.715 L 32.438 27.771 L 32.420 27.826 L 32.398 27.879 L 32.372 27.930 L 32.341 27.979 L 32.306 28.024 L 32.267 28.067 L 32.224 28.106 L 32.179 28.141 L 32.130 28.172 L 32.079 28.198 L 32.026 28.220 L 31.971 28.238 L 31.915 28.250 L 31.858 28.257 L 31.800 28.260 L 31.742 28.257 L 31.685 28.250 L 31.629 28.238 L 31.574 28.220 L 31.521 28.198 L 31.470 28.172 L 31.421 28.141 L 31.376 28.106 L 31.333 28.067 L 31.294 28.024 L 31.259 27.979 L 31.228 27.930 L 31.202 27.879 L 31.180 27.826 L 31.162 27.771 L 31.150 27.715 L 31.143 27.658 L 31.140 27.600 L 31.143 27.542 L 31.150 27.485 L 31.162 27.429 L 31.180 27.374 L 31.202 27.321 L 31.228 27.270 L 31.259 27.221 L 31.294 27.176 L 31.333 27.133 L 31.376 27.094 L 31.421 27.059 L 31.470 27.028 L 31.521 27.002 L 31.574 26.980 L 31.629 26.962 L 31.685 26.950 L 31.742 26.943 L 31.800 26.940 L 31.858 26.943 L 31.915 26.950 L 31.971 26.962 L 32.026 26.980 L 32.079 27.002 L 32.130 27.028 L 32.179 27.059 L 32.224 27.094 L 32.267 27.133 L 32.306 27.176 L 32.341 27.221 L 32.372 27.270 L 32.398 27.321 L 32.420 27.374 L 32.438 27.429 L 32.450 27.485 L 32.457 27.542 L 32.460 27.600 Z" fill="#000000" stroke="none" />
<path d="M 27.000 30.000 L 28.200 30.900 L 29.400 30.000 L 27.000 30.000 Z" fill="#000000" stroke="none" />
<path d="M 25.800 31.800 L 25.858 31.909 L 25.919 32.011 L 25.984 32.105 L 26.051 32.192 L 26.121 32.271 L 26.193 32.343 L 26.267 32.406 L 26.344 32.461 L 26.422 32.508 L 26.502 32.546 L 26.583 32.576 L 26.665 32.596 L 26.748 32.608 L 26.832 32.611 L 26.916 32.604 L 27.000 32.587 L 27.084 32.562 L 27.168 32.526 L 27.252 32.480 L 27.335 32.424 L 27.417 32.358 L 27.498 32.281 L 27.578 32.194 L 27.656 32.095 L 27.733 31.986 L 27.807 31.866 L 27.879 31.734 L 27.949 31.591 L 28.016 31.436 L 28.081 31.269 L 28.142 31.091 L 28.200 30.900" fill="none" stroke="#000000" stroke-width="0.39" stroke-linecap="round" stroke-linejoin="round" />
<path d="M 28.200 30.900 L 28.258 31.091 L 28.319 31.269 L 28.384 31.436 L 28.451 31.591 L 28.521 31.734 L 28.593 31.866 L 28.667 31.986 L 28.744 32.095 L 28.822 32.194 L 28.902 32.281 L 28.983 32.358 L 29.065 32.424 L 29.148 32.480 L 29.232 32.526 L 29.316 32.562 L 29.400 32.587 L 29.484 32.604 L 29.568 32.611 L 29.652 32.608 L 29.735 32.596 L 29.817 32.576 L 29.898 32.546 L 29.978 32.508 L 30.056 32.461 L 30.133 32.406 L 30.207 32.343 L 30.279 32.271 L 30.349 32.192 L 30.416 32.105 L 30.481 32.011 L 30.542 31.909 L 30.600 31.800" fill="none" stroke="#000000" stroke-width="0.39" stroke-linecap="round" stroke-linejoin="round" />
<path d="M 21.000 30.000 L 22.200 30.300" fill="none" stroke="#000000" stroke-width="0.39" stroke-linecap="round" stroke-linejoin="round" />
<path d="M 33.600 30.300 L 34.800 30.000" fill="none" stroke="#000000" stroke-width="0.39" stroke-linecap="round" stroke-linejoin="round" />
<path d="M 34.200 36.000 L 34.423 35.828 L 34.643 35.649 L 34.860 35.465 L 35.073 35.276 L 35.283 35.082 L 35.491 34.885 L 35.695 34.684 L 35.897 34.481 L 36.096 34.277 L 36.293 34.071 L 36.487 33.865 L 36.679 33.659 L 36.868 33.453 L 37.056 33.250 L 37.241 33.049 L 37.425 32.850 L 37.607 32.655 L 37.787 32.464 L 37.966 32.278 L 38.143 32.098 L 38.319 31.923 L 38.494 31.756 L 38.668 31.596 L 38.841 31.444 L 39.012 31.301 L 39.184 31.167 L 39.354 31.043 L 39.524 30.930 L 39.693 30.829 L 39.862 30.740 L 40.031 30.663 L 40.200 30.600" fill="none" stroke="#000000" stroke-width="0.39" stroke-linecap="round" stroke-linejoin="round" />
<path d="M 40.200 30.600 L 40.522 30.559 L 40.812 30.549 L 41.072 30.569 L 41.300 30.616 L 41.499 30.691 L 41.667 30.792 L 41.806 30.919 L 41.916 31.069 L 41.996 31.242 L 42.048 31.436 L 42.071 31.652 L 42.067 31.887 L 42.035 32.140 L 41.975 32.411 L 41.888 32.698 L 41.775 33.000 L 41.635 33.316 L 41.470 33.645 L 41.278 33.986 L 41.061 34.338 L 40.819 34.700 L 40.553 35.070 L 40.262 35.447 L 39.947 35.831 L 39.608 36.220 L 39.246 36.614 L 38.861 37.010 L 38.453 37.409 L 38.022 37.808 L 37.570 38.207 L 37.096 38.605 L 36.600 39.000" fill="none" stroke="#000000" stroke-width="0.39" stroke-linecap="round" stroke-linejoin="round" />
<path d="M 25.200 38.400 L 25.428 38.349 L 25.663 38.308 L 25.904 38.277 L 26.150 38.256 L 26.401 38.244 L 26.657 38.240 L 26.916 38.246 L 27.178 38.259 L 27.443 38.281 L 27.710 38.310 L 27.979 38.346 L 28.248 38.389 L 28.518 38.439 L 28.788 38.495 L 29.057 38.557 L 29.325 38.625 L 29.591 38.698 L 29.855 38.776 L 30.116 38.858 L 30.374 38.945 L 30.628 39.036 L 30.877 39.130 L 31.121 39.228 L 31.359 39.328 L 31.592 39.431 L 31.817 39.537 L 32.036 39.644 L 32.246 39.754 L 32.449 39.864 L 32.642 39.975 L 32.826 40.088 L 33.000 40.200" fill="none" stroke="#000000" stroke-width="0.39" stroke-linecap="round" stroke-linejoin="round" />
<path d="M 33.000 40.200 L 33.148 40.418 L 33.256 40.622 L 33.325 40.813 L 33.357 40.990 L 33.355 41.154 L 33.320 41.305 L 33.254 41.443 L 33.159 41.569 L 33.037 41.682 L 32.889 41.783 L 32.718 41.873 L 32.525 41.951 L 32.313 42.017 L 32.082 42.072 L 31.836 42.117 L 31.575 42.150 L 31.302 42.173 L 31.019 42.185 L 30.726 42.188 L 30.428 42.180 L 30.124 42.163 L 29.818 42.137 L 29.510 42.101 L 29.203 42.056 L 28.899 42.003 L 28.599 41.941 L 28.306 41.870 L 28.021 41.791 L 27.746 41.705 L 27.483 41.611 L 27.233 41.509 L 27.000 41.400" fill="none" stroke="#000000" stroke-width="0.39" stroke-linecap="round" stroke-linejoin="round" />
<path d="M 23.400 46.200 L 23.528 45.876 L 23.685 45.581 L 23.870 45.312 L 24.080 45.069 L 24.312 44.853 L 24.565 44.661 L 24.837 44.495 L 25.125 44.353 L 25.427 44.235 L 25.741 44.140 L 26.064 44.067 L 26.395 44.017 L 26.732 43.988 L 27.071 43.980 L 27.411 43.993 L 27.750 44.025 L 28.085 44.077 L 28.415 44.147 L 28.737 44.236 L 29.048 44.343 L 29.348 44.466 L 29.633 44.606 L 29.901 44.763 L 30.150 44.934 L 30.378 45.121 L 30.583 45.322 L 30.762 45.537 L 30.914 45.765 L 31.036 46.006 L 31.126 46.259 L 31.181 46.524 L 31.200 46.800" fill="none" stroke="#000000" stroke-width="0.39" stroke-linecap="round" stroke-linejoin="round" />
<path d="M 27.000 45.900 L 27.000 46.800" fill="none" stroke="#000000" stroke-width="0.39" stroke-linecap="round" stroke-linejoin="round" />
<path d="M 28.800 45.900 L 28.800 46.800" fill="none" stroke="#000000" stroke-width="0.39" stroke-linecap="round" stroke-linejoin="round" />
<path d="M 54.000 46.200 L 53.978 46.482 L 53.912 46.756 L 53.804 47.017 L 53.656 47.258 L 53.473 47.473 L 53.258 47.656 L 53.017 47.804 L 52.756 47.912 L 52.482 47.978 L 52.200 48.000 L 40.200 48.000 L 39.918 47.978 L 39.644 47.912 L 39.383 47.804 L 39.142 47.656 L 38.927 47.473 L 38.744 47.258 L 38.596 47.017 L 38.488 46.756 L 38.422 46.482 L 38.400 46.200 L 38.400 42.600 L 38.422 42.318 L 38.488 42.044 L 38.596 41.783 L 38.744 41.542 L 38.927 41.327 L 39.142 41.144 L 39.383 40.996 L 39.644 40.888 L 39.918 40.822 L 40.200 40.800 L 52.200 40.800 L 52.482 40.822 L 52.756 40.888 L 53.017 40.996 L 53.258 41.144 L 53.473 41.327 L 53.656 41.542 L 53.804 41.783 L 53.912 42.044 L 53.978 42.318 L 54.000 42.600 L 54.000 46.200 Z" fill="none" stroke="#000000" stroke-width="0.39" stroke-linecap="round" stroke-linejoin="round" />
<path d="M 44.220 44.400 L 44.214 44.541 L 44.195 44.681 L 44.165 44.819 L 44.122 44.954 L 44.068 45.085 L 44.003 45.210 L 43.927 45.329 L 43.841 45.441 L 43.746 45.546 L 43.641 45.641 L 43.529 45.727 L 43.410 45.803 L 43.285 45.868 L 43.154 45.922 L 43.019 45.965 L 42.881 45.995 L 42.741 46.014 L 42.600 46.020 L 42.459 46.014 L 42.319 45.995 L 42.181 45.965 L 42.046 45.922 L 41.915 45.868 L 41.790 45.803 L 41.671 45.727 L 41.559 45.641 L 41.454 45.546 L 41.359 45.441 L 41.273 45.329 L 41.197 45.210 L 41.132 45.085 L 41.078 44.954 L 41.035 44.819 L 41.005 44.681 L 40.986 44.541 L 40.980 44.400 L 40.986 44.259 L 41.005 44.119 L 41.035 43.981 L 41.078 43.846 L 41.132 43.715 L 41.197 43.590 L 41.273 43.471 L 41.359 43.359 L 41.454 43.254 L 41.559 43.159 L 41.671 43.073 L 41.790 42.997 L 41.915 42.932 L 42.046 42.878 L 42.181 42.835 L 42.319 42.805 L 42.459 42.786 L 42.600 42.780 L 42.741 42.786 L 42.881 42.805 L 43.019 42.835 L 43.154 42.878 L 43.285 42.932 L 43.410 42.997 L 43.529 43.073 L 43.641 43.159 L 43.746 43.254 L 43.841 43.359 L 43.927 43.471 L 44.003 43.590 L 44.068 43.715 L 44.122 43.846 L 44.165 43.981 L 44.195 44.119 L 44.214 44.259 L 44.220 44.400 Z" fill="none" stroke="#000000" stroke-width="0.39" stroke-linecap="round" stroke-linejoin="round" />
<path d="M 42.803 44.049 L 43.208 43.348" fill="none" stroke="#000000" stroke-width="0.39" stroke-linecap="round" stroke-linejoin="round" />
<path d="M 46.800 44.400 L 51.000 44.400" fill="none" stroke="#000000" stroke-width="0.39" stroke-linecap="round" stroke-linejoin="round" />
<path d="M 49.800 40.800 L 49.800 21.000" fill="none" stroke="#000000" stroke-width="0.39" stroke-linecap="round" stroke-linejoin="round" />
<path d="M 51.000 19.800 L 50.995 19.905 L 50.982 20.008 L 50.959 20.111 L 50.928 20.210 L 50.888 20.307 L 50.839 20.400 L 50.783 20.488 L 50.719 20.571 L 50.649 20.649 L 50.571 20.719 L 50.488 20.783 L 50.400 20.839 L 50.307 20.888 L 50.210 20.928 L 50.111 20.959 L 50.008 20.982 L 49.905 20.995 L 49.800 21.000 L 49.695 20.995 L 49.592 20.982 L 49.489 20.959 L 49.390 20.928 L 49.293 20.888 L 49.200 20.839 L 49.112 20.783 L 49.029 20.719 L 48.951 20.649 L 48.881 20.571 L 48.817 20.488 L 48.761 20.400 L 48.712 20.307 L 48.672 20.210 L 48.641 20.111 L 48.618 20.008 L 48.605 19.905 L 48.600 19.800 L 48.605 19.695 L 48.618 19.592 L 48.641 19.489 L 48.672 19.390 L 48.712 19.293 L 48.761 19.200 L 48.817 19.112 L 48.881 19.029 L 48.951 18.951 L 49.029 18.881 L 49.112 18.817 L 49.200 18.761 L 49.293 18.712 L 49.390 18.672 L 49.489 18.641 L 49.592 18.618 L 49.695 18.605 L 49.800 18.600 L 49.905 18.605 L 50.008 18.618 L 50.111 18.641 L 50.210 18.672 L 50.307 18.712 L 50.400 18.761 L 50.488 18.817 L 50.571 18.881 L 50.649 18.951 L 50.719 19.029 L 50.783 19.112 L 50.839 19.200 L 50.888 19.293 L 50.928 19.390 L 50.959 19.489 L 50.982 19.592 L 50.995 19.695 L 51.000 19.800 Z" fill="none" stroke="#000000" stroke-width="0.39" stroke-linecap="round" stroke-linejoin="round" />
<path d="M 38.400 42.600 L 37.799 42.295 L 37.233 42.054 L 36.703 41.871 L 36.210 41.745 L 35.753 41.670 L 35.742 41.669" fill="none" stroke="#000000" stroke-width="0.39" stroke-linecap="round" stroke-linejoin="round" />
<path d="M 34.846 45.337 L 35.161 45.460 L 35.589 45.581 L 36.062 45.668 L 36.579 45.717 L 37.141 45.725 L 37.748 45.687 L 38.400 45.600" fill="none" stroke="#000000" stroke-width="0.39" stroke-linecap="round" stroke-linejoin="round" />
<path d="M 41.400 48.000 L 40.800 50.400" fill="none" stroke="#000000" stroke-width="0.39" stroke-linecap="round" stroke-linejoin="round" />
<path d="M 51.000 48.000 L 51.600 50.400" fill="none" stroke="#000000" stroke-width="0.39" stroke-linecap="round" stroke-linejoin="round" />
<path d="M 39.600 50.400 L 42.600 50.400" fill="none" stroke="#000000" stroke-width="0.39" stroke-linecap="round" stroke-linejoin="round" />
<path d="M 49.800 50.400 L 52.800 50.400" fill="none" stroke="#000000" stroke-width="0.39" stroke-linecap="round" stroke-linejoin="round" />
<path d="M 45.103 34.170 L 45.038 34.051 L 44.975 33.928 L 44.915 33.800 L 44.858 33.669 L 44.804 33.533 L 44.754 33.394 L 44.706 33.252 L 44.662 33.107 L 44.620 32.958 L 44.583 32.807 L 44.548 32.654 L 44.517 32.498 L 44.490 32.340 L 44.466 32.180 L 44.446 32.019 L 44.430 31.857 L 44.417 31.694 L 44.407 31.530 L 44.402 31.365 L 44.400 31.200 L 44.402 31.035 L 44.407 30.870 L 44.417 30.706 L 44.430 30.543 L 44.446 30.381 L 44.466 30.220 L 44.490 30.060 L 44.517 29.902 L 44.548 29.746 L 44.583 29.593 L 44.620 29.442 L 44.662 29.293 L 44.706 29.148 L 44.754 29.006 L 44.804 28.867 L 44.858 28.731 L 44.915 28.600 L 44.975 28.472 L 45.038 28.349 L 45.103 28.230" fill="none" stroke="#000000" stroke-width="0.39" stroke-linecap="round" stroke-linejoin="round" />
<path d="M 43.800 9.000 L 44.284 10.316 L 45.600 10.800 L 44.284 11.284 L 43.800 12.600 L 43.316 11.284 L 42.000 10.800 L 43.316 10.316 L 43.800 9.000 Z" fill="none" stroke="#000000" stroke-width="0.39" stroke-linecap="round" stroke-linejoin="round" />
<path d="M 7.200 9.900 L 7.603 10.997 L 8.700 11.400 L 7.603 11.803 L 7.200 12.900 L 6.797 11.803 L 5.700 11.400 L 6.797 10.997 L 7.200 9.900 Z" fill="none" stroke="#000000" stroke-width="0.39" stroke-linecap="round" stroke-linejoin="round" />
</svg>